<?xml version="1.0" encoding="UTF-8" standalone="no"?>
<!DOCTYPE svg PUBLIC "-//W3C//DTD SVG 1.1//EN"
 "http://www.w3.org/Graphics/SVG/1.1/DTD/svg11.dtd">
<!-- Generated by graphviz version 2.43.0 (0)
 -->
<!-- Title: %3 Pages: 1 -->
<svg width="254pt" height="136pt"
  xmlns="http://www.w3.org/2000/svg" xmlns:xlink="http://www.w3.org/1999/xlink">
<g id="graph0" class="graph" transform="scale(0.72 0.72) rotate(0) translate(4 94)">
<title>%3</title>
<polygon fill="white" stroke="transparent" points="-4,4 -4,-94 178.66,-94 178.66,4 -4,4"/>
<!-- a -->
<g id="a" class="node">
<title>a</title>
<polygon fill="none" stroke="black" points="30.33,-63 0.17,-45 30.33,-27 60.5,-45 30.33,-63"/>
<text text-anchor="middle" x="30.33" y="-41.3" font-family="Times,serif" font-size="14.00">if&gt;</text>
</g>
<!-- b -->
<g id="b" class="node">
<title>b</title>
<polygon fill="none" stroke="black" points="174.66,-90 120.66,-90 120.66,-54 174.66,-54 174.66,-90"/>
<text text-anchor="middle" x="147.66" y="-68.3" font-family="Times,serif" font-size="14.00">!b</text>
</g>
<!-- a&#45;&#45;b -->
<g id="edge1" class="edge">
<title>a&#45;&#45;b</title>
<path fill="none" stroke="black" d="M52.49,-49.95C71.6,-54.43 99.82,-61.03 120.38,-65.85"/>
<text text-anchor="middle" x="90.66" y="-63.8" font-family="Times,serif" font-size="14.00">then</text>
</g>
<!-- c -->
<g id="c" class="node">
<title>c</title>
<polygon fill="none" stroke="black" points="174.66,-36 120.66,-36 120.66,0 174.66,0 174.66,-36"/>
<text text-anchor="middle" x="147.66" y="-14.3" font-family="Times,serif" font-size="14.00">!c</text>
</g>
<!-- a&#45;&#45;c -->
<g id="edge2" class="edge">
<title>a&#45;&#45;c</title>
<path fill="none" stroke="black" d="M52.49,-40.05C71.6,-35.57 99.82,-28.97 120.38,-24.15"/>
<text text-anchor="middle" x="90.66" y="-36.8" font-family="Times,serif" font-size="14.00">else</text>
</g>
</g>
</svg>
